<?xml version="1.0" encoding="utf-8"?>
<!-- Generator: Adobe Illustrator 16.0.0, SVG Export Plug-In . SVG Version: 6.00 Build 0)  -->
<!DOCTYPE svg PUBLIC "-//W3C//DTD SVG 1.1//EN" "http://www.w3.org/Graphics/SVG/1.1/DTD/svg11.dtd">
<svg version="1.1" id="Layer_1" xmlns="http://www.w3.org/2000/svg" xmlns:xlink="http://www.w3.org/1999/xlink" x="0px" y="0px"
	 width="392.161px" height="95.694px" viewBox="0 0 392.161 95.694" enable-background="new 0 0 392.161 95.694"
	 xml:space="preserve">
<g>
	<g>
		<path d="M73.417,46.979c-0.519-0.437-1.057-0.629-1.612-0.577c-0.558,0.053-0.876,0.511-0.956,1.375
			c-0.137,0.925-0.985,1.692-2.546,2.306c-1.56,0.614-3.551,1.118-5.971,1.515c-2.421,0.397-5.096,0.68-8.025,0.848
			c-2.931,0.169-5.807,0.237-8.629,0.208c0.864-2.684,1.689-5.308,2.477-7.874c0.785-2.564,1.436-4.964,1.945-7.199
			c0.511-2.234,0.885-4.262,1.123-6.082c0.236-1.819,0.265-3.384,0.084-4.696c-0.175-1.139-0.63-2.007-1.37-2.603
			c-0.74-0.595-1.59-0.984-2.546-1.167c-0.957-0.182-1.967-0.218-3.028-0.108c-1.062,0.111-2.001,0.288-2.817,0.53
			c-0.818,0.244-1.439,0.534-1.867,0.871c-0.427,0.338-0.487,0.614-0.18,0.827c0.373,0.325,0.421,1.27,0.146,2.834
			c-0.274,1.564-0.734,3.569-1.375,6.014c-0.641,2.444-1.44,5.229-2.395,8.35c-0.955,3.123-1.96,6.378-3.012,9.764
			c-3.121-0.061-6.074,0.002-8.856,0.187c-2.784,0.187-5.229,0.629-7.335,1.326c-2.107,0.698-3.783,1.688-5.032,2.969
			c-1.248,1.28-1.893,2.986-1.935,5.113c-0.027,1.496,0.145,2.677,0.514,3.545s0.804,1.445,1.307,1.729
			c0.503,0.287,0.945,0.288,1.33,0.007s0.579-0.823,0.59-1.629c-0.012-1.147,0.431-2.106,1.324-2.878
			c0.893-0.771,2.117-1.418,3.672-1.939c1.555-0.521,3.394-0.928,5.521-1.221c2.126-0.292,4.417-0.534,6.871-0.726
			c-1.152,3.624-2.23,7.199-3.233,10.729c-1.004,3.53-1.844,6.777-2.522,9.745c-0.679,2.967-1.158,5.549-1.439,7.748
			c-0.283,2.198-0.222,3.773,0.182,4.728c0.62,1.688,1.512,2.813,2.678,3.379c1.165,0.566,2.297,0.819,3.396,0.758
			c1.1-0.061,2.042-0.357,2.828-0.887c0.783-0.532,1.162-1.055,1.135-1.569c-0.191-1.368-0.004-3.288,0.561-5.758
			c0.565-2.472,1.332-5.282,2.303-8.435c0.97-3.152,2.076-6.525,3.324-10.121c1.245-3.596,2.508-7.234,3.789-10.916
			c4.621-0.292,8.649-0.689,12.089-1.196c3.438-0.508,6.36-1.1,8.767-1.782c2.404-0.681,4.342-1.383,5.808-2.106
			c1.466-0.722,2.538-1.413,3.216-2.073c0.677-0.66,0.926-1.359,0.749-2.098C74.284,48.005,73.935,47.417,73.417,46.979z
			 M391.528,84.245c-1.915-0.15-3.836-1.061-5.768-2.729c-1.933-1.67-3.846-3.781-5.744-6.334c-1.898-2.555-3.717-5.36-5.455-8.421
			c-1.74-3.059-3.369-6.069-4.885-9.032c-1.518-2.96-2.889-5.672-4.109-8.132c-1.223-2.46-2.25-4.364-3.078-5.719
			c1.91-0.668,3.912-1.42,6.01-2.251c2.095-0.831,4.106-1.722,6.035-2.671c1.928-0.95,3.668-1.963,5.221-3.042
			c1.554-1.078,2.712-2.203,3.475-3.373c1.012-1.504,1.344-2.909,0.99-4.216c-0.354-1.307-0.955-2.396-1.804-3.267
			c-0.849-0.87-1.712-1.439-2.588-1.709c-0.877-0.268-1.327-0.145-1.349,0.371c-0.023,0.516-0.409,1.201-1.156,2.058
			c-0.748,0.858-1.721,1.805-2.92,2.843c-1.197,1.04-2.561,2.171-4.088,3.398c-1.529,1.227-3.1,2.44-4.711,3.636
			c-1.613,1.197-3.207,2.353-4.783,3.467c-1.576,1.114-2.999,2.135-4.271,3.062c1.964-3.654,3.92-7.336,5.87-11.046
			c1.947-3.71,3.672-7.183,5.168-10.421c1.495-3.238,2.653-6.101,3.471-8.592c0.816-2.49,1.074-4.345,0.769-5.563
			c-0.462-1.741-1.306-2.923-2.53-3.548c-1.225-0.623-2.45-0.932-3.67-0.924c-1.222,0.008-2.242,0.226-3.063,0.652
			c-0.82,0.428-1.029,0.82-0.626,1.18c0.343,0.358,0.211,1.415-0.393,3.169c-0.604,1.755-1.523,3.957-2.752,6.606
			c-1.229,2.65-2.663,5.651-4.298,9.002c-1.635,3.354-3.328,6.805-5.079,10.356c-1.752,3.551-3.451,7.078-5.103,10.577
			c-0.417,0.885-0.821,1.754-1.213,2.609c-0.412,0.752-0.87,1.529-1.381,2.335c-1.087,1.714-2.318,3.437-3.696,5.168
			c-1.377,1.734-2.836,3.379-4.379,4.936c-1.543,1.558-3.109,2.914-4.693,4.07c-1.586,1.155-3.131,2.013-4.638,2.571
			s-2.899,0.706-4.177,0.44c-1.104-0.26-1.842-1.041-2.215-2.342c-0.375-1.301-0.493-2.838-0.357-4.612
			c0.137-1.773,0.48-3.657,1.033-5.649s1.234-3.809,2.044-5.45c1.307-2.601,2.609-4.959,3.907-7.072
			c1.297-2.113,2.542-3.883,3.734-5.31c1.193-1.427,2.303-2.512,3.329-3.254s1.951-1.071,2.776-0.988
			c0.648,0.02,1.108,0.379,1.382,1.077c-0.423,0.274-0.772,0.607-1.05,0.999c-0.278,0.393-0.425,0.818-0.439,1.276
			c-0.023,0.745,0.236,1.356,0.782,1.832c0.544,0.477,1.171,0.726,1.877,0.749c0.823,0.027,1.479-0.238,1.972-0.795
			c0.547-0.499,0.84-1.319,0.877-2.467c0.039-1.146-0.166-2.113-0.611-2.902c-0.447-0.789-1.002-1.424-1.665-1.905
			c-0.664-0.479-1.391-0.833-2.181-1.06c-0.791-0.226-1.539-0.378-2.246-0.458c-2.124-0.123-4.23,0.127-6.315,0.754
			c-2.087,0.626-4.125,1.701-6.114,3.223c-1.99,1.523-3.889,3.507-5.689,5.954c-1.038,1.409-2.019,3.007-2.955,4.752
			c-0.253,0.146-0.449,0.378-0.585,0.705c-0.376,0.966-0.996,2.183-1.854,3.653c-0.86,1.471-1.822,3.023-2.889,4.661
			s-2.219,3.273-3.457,4.907c-1.239,1.636-2.43,3.114-3.569,4.436c-1.142,1.323-2.188,2.403-3.14,3.244
			c-0.954,0.84-1.693,1.284-2.221,1.329c-1.346,0.089-1.934-0.454-1.764-1.627c0.17-1.171,0.757-2.736,1.763-4.695
			c1.007-1.957,2.253-4.182,3.743-6.673c1.491-2.491,2.897-5.012,4.22-7.563c1.321-2.551,2.364-5.006,3.128-7.369
			c0.762-2.361,0.899-4.379,0.408-6.055c-0.49-1.732-1.363-2.899-2.619-3.502c-1.258-0.602-2.477-0.887-3.658-0.855
			c-1.184,0.031-2.177,0.269-2.982,0.71c-0.808,0.442-1.008,0.839-0.602,1.191c0.347,0.352,0.422,0.999,0.225,1.94
			c-0.196,0.942-0.574,2.082-1.133,3.417c-0.557,1.337-1.251,2.843-2.079,4.517c-0.828,1.676-1.673,3.45-2.532,5.326
			c-0.791,1.419-1.629,2.966-2.511,4.64c-0.883,1.676-1.794,3.352-2.731,5.025c-0.939,1.675-1.904,3.277-2.896,4.809
			s-1.949,2.835-2.873,3.908c-0.925,1.076-1.842,1.863-2.756,2.365s-1.775,0.574-2.588,0.219c-1.046-0.416-1.765-1.287-2.154-2.612
			c-0.391-1.323-0.545-2.858-0.461-4.607c0.082-1.747,0.387-3.577,0.912-5.492c0.525-1.912,1.183-3.694,1.971-5.347
			c1.271-2.618,2.543-4.993,3.813-7.123c1.27-2.13,2.492-3.916,3.665-5.358c1.174-1.442,2.269-2.542,3.286-3.298
			c1.016-0.756,1.936-1.097,2.762-1.025c0.648,0.012,1.113,0.365,1.396,1.058c-0.42,0.28-0.764,0.617-1.037,1.013
			c-0.273,0.396-0.414,0.824-0.422,1.282c-0.014,0.746,0.254,1.353,0.806,1.821c0.551,0.471,1.18,0.711,1.887,0.725
			c0.765,0.015,1.388-0.231,1.87-0.737c0.598-0.446,0.91-1.3,0.936-2.562c0.023-1.146-0.193-2.111-0.65-2.895
			s-1.02-1.41-1.689-1.882c-0.67-0.472-1.401-0.815-2.195-1.031c-0.793-0.216-1.543-0.358-2.25-0.429
			c-2.125-0.095-4.229,0.183-6.305,0.837c-2.078,0.654-4.103,1.756-6.072,3.303c-1.969,1.549-3.84,3.558-5.609,6.029
			c-1.573,2.197-3.014,4.817-4.335,7.811c-0.806,1.347-1.725,2.78-2.777,4.316c-1.581,2.305-3.349,4.565-5.303,6.782
			c-2.074,2.388-4.243,4.476-6.506,6.265c-2.266,1.788-4.858,2.988-7.781,3.603c2.052-1.536,4.022-3.588,5.914-6.154
			c1.89-2.565,3.613-5.704,5.173-9.419c0.777-1.885,1.443-3.956,1.993-6.217c0.55-2.26,0.747-4.436,0.591-6.531
			c-0.157-2.094-0.744-4.02-1.76-5.778c-1.016-1.757-2.701-3.133-5.055-4.126c-2.648-1.108-5.115-1.326-7.391-0.65
			c-2.278,0.675-4.394,1.9-6.347,3.669c1.427-2.919,2.752-5.765,3.978-8.541c1.225-2.774,2.289-5.334,3.191-7.68
			s1.552-4.406,1.949-6.181c0.396-1.774,0.449-3.15,0.159-4.127c-0.524-1.723-1.409-2.875-2.655-3.456
			c-1.246-0.58-2.48-0.844-3.699-0.792c-1.221,0.052-2.232,0.307-3.038,0.762c-0.804,0.457-0.999,0.856-0.583,1.202
			c0.355,0.345,0.262,1.406-0.278,3.181c-0.541,1.776-1.38,4.009-2.513,6.7c-1.135,2.693-2.459,5.743-3.973,9.151
			c-1.514,3.41-3.082,6.92-4.704,10.531c-1.616,3.597-3.183,7.166-4.7,10.707c-0.038,0.07-0.077,0.138-0.107,0.217
			c-0.059,0.162-0.133,0.343-0.205,0.521c-0.082,0.192-0.16,0.38-0.241,0.571c-0.338,0.769-0.769,1.645-1.312,2.652
			c-0.821,1.521-1.756,3.114-2.808,4.778c-1.051,1.667-2.176,3.347-3.369,5.042c-1.195,1.695-2.346,3.22-3.449,4.571
			c-1.105,1.353-2.125,2.447-3.054,3.283c-0.931,0.836-1.658,1.256-2.184,1.26c-1.169,0.006-1.799-0.405-1.892-1.236
			c-0.094-0.829,0.118-1.936,0.636-3.314c0.518-1.38,1.254-3.004,2.21-4.873c0.955-1.867,1.912-3.837,2.871-5.905
			c0.958-2.069,1.814-4.18,2.569-6.333s1.188-4.204,1.3-6.154c0.399-3.154,0.037-5.732-1.091-7.735
			c-1.13-2.002-2.847-2.969-5.149-2.9c-1.891,0.068-3.908,0.883-6.051,2.446c-2.144,1.564-4.236,3.473-6.278,5.727
			c1.562-3.282,3.068-6.533,4.521-9.756c1.452-3.222,2.704-6.197,3.752-8.928c1.048-2.729,1.835-5.129,2.356-7.196
			c0.521-2.067,0.603-3.644,0.239-4.731c-0.544-1.717-1.443-2.857-2.696-3.424c-1.254-0.563-2.491-0.813-3.709-0.747
			c-1.221,0.067-2.229,0.333-3.028,0.798c-0.799,0.466-0.989,0.869-0.569,1.208c0.359,0.341,0.279,1.403-0.24,3.185
			c-0.52,1.782-1.332,4.026-2.432,6.73c-1.102,2.706-2.39,5.771-3.861,9.198c-1.473,3.427-3,6.956-4.578,10.587
			c-1.579,3.631-3.108,7.233-4.59,10.808c-0.3,0.724-0.586,1.431-0.871,2.134c-0.809,1.423-1.748,2.906-2.827,4.453
			c-1.497,2.144-3.193,4.319-5.092,6.527c0.384-1.611,0.52-3.333,0.402-5.167c-0.116-1.833-0.543-3.805-1.282-5.915
			c-0.738-2.109-1.819-4.328-3.242-6.656c-1.423-2.327-3.307-4.76-5.655-7.297c0.086-0.174,0.172-0.347,0.256-0.521
			c0.746-1.16,1.345-2.332,1.797-3.516c0.451-1.183,0.64-2.262,0.563-3.236c-0.077-0.973-0.461-1.769-1.151-2.388
			c-0.692-0.618-1.778-0.914-3.256-0.886c-1.421,0.026-2.568,0.322-3.445,0.884c-0.876,0.563-1.559,1.235-2.045,2.02
			c-0.487,0.784-0.825,1.565-1.016,2.343c-0.191,0.778-0.281,1.425-0.27,1.941c0.024,1.204,0.226,2.347,0.602,3.428
			c0.377,1.083,0.897,2.076,1.565,2.979c-0.396,0.812-0.764,1.579-1.103,2.302c-0.338,0.725-0.707,1.434-1.104,2.13
			c-0.397,0.696-0.795,1.436-1.189,2.218c-0.396,0.783-0.818,1.667-1.267,2.651c-0.108,0.195-0.17,0.379-0.191,0.552
			c-0.339,0.936-0.857,2.076-1.572,3.443c-0.79,1.509-1.68,3.106-2.666,4.791c-0.989,1.687-2.063,3.374-3.224,5.065
			c-1.161,1.691-2.28,3.224-3.356,4.598c-1.079,1.375-2.074,2.504-2.985,3.388c-0.913,0.884-1.631,1.362-2.155,1.433
			c-1.34,0.15-1.953-0.363-1.838-1.543c0.113-1.178,0.627-2.77,1.54-4.772s2.054-4.283,3.427-6.842
			c1.372-2.558,2.658-5.143,3.859-7.752c1.2-2.61,2.127-5.112,2.777-7.507c0.651-2.394,0.694-4.417,0.125-6.067
			c-0.571-1.707-1.499-2.832-2.781-3.375c-1.284-0.542-2.516-0.77-3.694-0.684c-1.181,0.088-2.161,0.371-2.946,0.85
			c-0.785,0.48-0.967,0.886-0.544,1.219c0.362,0.334,0.468,0.977,0.315,1.927c-0.152,0.951-0.477,2.107-0.971,3.466
			c-0.495,1.362-1.117,2.898-1.865,4.61c-0.749,1.712-1.51,3.525-2.279,5.439c-0.725,1.454-1.489,3.039-2.291,4.753
			c-0.804,1.715-1.635,3.432-2.492,5.147c-0.86,1.718-1.748,3.363-2.668,4.939c-0.919,1.576-1.814,2.924-2.688,4.039
			c-0.873,1.117-1.752,1.946-2.641,2.491c-0.89,0.544-1.748,0.658-2.576,0.34c-1.063-0.366-1.822-1.202-2.273-2.508
			c-0.453-1.304-0.68-2.83-0.678-4.581c0-1.749,0.219-3.591,0.654-5.528c0.434-1.936,1.007-3.746,1.717-5.434
			c1.148-2.674,2.307-5.107,3.475-7.294c1.168-2.188,2.305-4.029,3.41-5.525c1.104-1.496,2.146-2.645,3.126-3.448
			c0.979-0.803,1.884-1.186,2.712-1.153c0.648-0.019,1.129,0.313,1.444,0.992c-0.405,0.299-0.734,0.652-0.988,1.06
			c-0.254,0.409-0.374,0.842-0.361,1.3c0.021,0.746,0.317,1.34,0.891,1.782c0.571,0.444,1.212,0.654,1.919,0.635
			c0.764-0.021,1.375-0.295,1.833-0.825c0.576-0.474,0.849-1.341,0.814-2.603c-0.03-1.146-0.292-2.1-0.785-2.861
			c-0.494-0.761-1.086-1.361-1.776-1.801c-0.691-0.439-1.438-0.748-2.241-0.927c-0.802-0.178-1.559-0.285-2.269-0.323
			c-2.127,0.004-4.215,0.381-6.259,1.132c-2.045,0.751-4.016,1.946-5.91,3.584c-1.896,1.639-3.671,3.734-5.321,6.285
			c-1.594,2.46-3.012,5.396-4.265,8.779c-0.102,0.208-0.198,0.41-0.309,0.629c-0.77,1.52-1.651,3.128-2.646,4.827
			c-0.996,1.7-2.049,3.402-3.157,5.106c-1.11,1.706-2.194,3.252-3.253,4.641c-1.061,1.389-2.025,2.529-2.896,3.424
			c-0.874,0.895-1.6,1.383-2.18,1.463c-0.989,0.154-1.438-0.488-1.349-1.926c0.088-1.438,0.566-3.393,1.436-5.867
			c0.87-2.472,2.018-5.357,3.448-8.654c1.43-3.295,2.948-6.724,4.555-10.283c1.606-3.558,3.201-7.159,4.787-10.801
			c1.03-2.37,1.964-4.623,2.819-6.78c1.624-0.215,2.99-0.601,4.093-1.16c1.455-0.736,2.552-1.604,3.29-2.604
			c0.736-0.999,1.207-2.061,1.408-3.186c0.2-1.125,0.255-2.202,0.164-3.232c-0.173-1.657-0.84-3.027-2.003-4.108
			c-0.822-0.764-1.695-1.382-2.613-1.87c-0.048-0.435-0.126-0.834-0.252-1.177c-0.592-1.701-1.536-2.816-2.834-3.347
			c-1.299-0.528-2.541-0.744-3.729-0.646c-1.188,0.1-2.175,0.393-2.961,0.879c-0.785,0.488-0.965,0.895-0.536,1.224
			c0.43,0.387,0.272,1.797-0.472,4.233c-0.459,1.502-1.054,3.26-1.753,5.218c-1.351,0.424-2.852,0.773-4.518,1.039
			c-2.36,0.377-4.875,0.562-7.546,0.553c-2.018,0.024-4.606-0.171-7.771-0.583c-3.165-0.411-6.601-0.892-10.309-1.442
			c-3.71-0.549-7.569-1.101-11.579-1.653c-4.011-0.551-7.913-0.973-11.707-1.265c-3.794-0.29-7.326-0.39-10.595-0.297
			c-3.27,0.093-6.016,0.492-8.237,1.192c-2.748,0.904-5.279,2.128-7.597,3.672c-2.317,1.545-4.349,3.361-6.093,5.45
			c-1.743,2.088-3.113,4.413-4.109,6.974C0.488,29.147-0.005,31.894,0,34.822c-0.002,0.201,0.001,0.4,0.01,0.596
			c0.004,0.098,0.01,0.196,0.017,0.292c0.006,0.097,0.015,0.193,0.023,0.289c0.037,0.382,0.095,0.753,0.173,1.114
			c0.156,0.723,0.395,1.404,0.716,2.045c0.642,1.282,1.55,2.345,2.724,3.19c1.173,0.847,2.524,1.453,4.051,1.819
			c1.527,0.368,3.168,0.441,4.924,0.221c1.93-0.288,3.729-1.01,5.403-2.17c1.673-1.159,3.05-2.372,4.13-3.639
			s1.816-2.37,2.207-3.311c0.39-0.94,0.293-1.337-0.289-1.19c-1.635,0.379-3.168,0.437-4.602,0.175
			c-1.435-0.263-2.677-0.764-3.726-1.508c-1.05-0.742-1.876-1.712-2.479-2.913c-0.604-1.199-0.892-2.545-0.861-4.041
			c-0.016-1.262,0.266-2.5,0.849-3.711c0.581-1.211,1.376-2.334,2.386-3.37c1.009-1.035,2.204-1.937,3.587-2.705
			c1.383-0.769,2.866-1.339,4.45-1.716c2.055-0.46,4.993-0.564,8.812-0.31c3.817,0.257,8.091,0.724,12.818,1.406
			c4.725,0.683,9.661,1.48,14.806,2.393c5.143,0.914,10.132,1.773,14.965,2.576c4.694,0.781,8.994,1.435,12.917,1.964
			c-0.803,2.068-1.651,4.227-2.548,6.486c-1.725,4.342-3.355,8.595-4.896,12.759c-1.54,4.165-2.854,7.991-3.941,11.479
			c-1.089,3.488-1.708,6.184-1.862,8.083c-0.111,1.554-0.05,3.001,0.182,4.339c0.232,1.34,0.631,2.471,1.195,3.394
			s1.281,1.625,2.146,2.105c0.867,0.481,1.883,0.669,3.046,0.564c1.399-0.056,2.835-0.63,4.313-1.72
			c1.476-1.09,2.929-2.466,4.356-4.127c1.43-1.659,2.811-3.489,4.143-5.488c0.725-1.087,1.415-2.168,2.081-3.245
			c-0.049,1.095-0.011,2.164,0.115,3.208c0.25,2.086,0.92,3.998,2.003,5.737c1.085,1.741,2.81,3.028,5.174,3.865
			c1.952,0.737,3.726,0.994,5.324,0.771c1.598-0.225,3.097-0.788,4.501-1.692c1.402-0.904,2.695-2.104,3.877-3.603
			c1.184-1.498,2.304-3.151,3.364-4.961c-0.208,2.932,0.271,5.326,1.435,7.186c1.162,1.859,2.85,2.702,5.063,2.525
			c1.399-0.037,2.843-0.592,4.334-1.663c1.489-1.071,2.96-2.427,4.41-4.068s2.854-3.453,4.212-5.435
			c1.359-1.981,2.617-3.945,3.776-5.894c1.158-1.946,2.161-3.774,3.005-5.485c0.783-1.583,1.388-2.841,1.832-3.804
			c0.068-0.073,0.135-0.15,0.197-0.239c0.563-1.158,1.2-2.391,1.91-3.695c0.709-1.305,1.348-2.507,1.915-3.608
			c1.897,3.691,3.194,7.021,3.897,9.989c0.701,2.969,0.997,5.573,0.893,7.811c-0.105,2.238-0.495,4.152-1.167,5.741
			c-0.672,1.591-1.452,2.896-2.337,3.915c-0.888,1.021-1.763,1.756-2.63,2.203s-1.534,0.677-2.001,0.687
			c-1.286-0.03-2.303-0.425-3.049-1.183s-1.22-1.68-1.419-2.765c-0.199-1.084-0.166-2.233,0.1-3.443
			c0.267-1.21,0.771-2.253,1.513-3.13c0.187,0.513,0.517,0.922,0.993,1.227c0.475,0.306,0.976,0.452,1.502,0.441
			c0.702-0.015,1.325-0.285,1.872-0.813c0.545-0.527,0.811-1.163,0.796-1.909c-0.014-0.688-0.304-1.254-0.869-1.702
			c-0.567-0.447-1.173-0.692-1.818-0.736c-0.648-0.102-1.437,0.06-2.364,0.479c-0.929,0.422-1.966,1.247-3.111,2.478
			c-0.801,0.877-1.328,2.123-1.584,3.734s-0.16,3.216,0.285,4.811c0.446,1.596,1.31,2.968,2.59,4.114
			c1.281,1.147,3.086,1.695,5.42,1.647c0.815-0.017,1.803-0.209,2.964-0.576c1.16-0.367,2.376-0.877,3.648-1.532
			c0.028-0.029,0.057-0.059,0.086-0.088c0.028,0,0.058-0.001,0.087-0.001c2.142-0.957,4.063-2.139,5.764-3.543
			c1.699-1.405,3.326-2.98,4.879-4.725c0.971-1.11,1.898-2.219,2.796-3.328c-0.437,1.438-0.799,2.772-1.075,3.99
			c-0.521,2.302-0.598,3.965-0.231,4.992c0.552,1.711,1.344,2.875,2.372,3.491c1.031,0.616,2.026,0.902,2.988,0.86
			c0.963-0.042,1.746-0.31,2.353-0.805s0.789-0.97,0.551-1.427c-0.479-0.854-0.197-2.72,0.85-5.601
			c1.045-2.88,2.479-6.365,4.312-10.458c0.057-0.116,0.114-0.231,0.172-0.347c0-0.028-0.001-0.057-0.001-0.086
			c0.372-0.778,0.745-1.556,1.118-2.334c0.92-1.672,2.133-3.534,3.643-5.585c1.508-2.05,3.049-3.985,4.623-5.805
			c1.574-1.82,3.079-3.337,4.516-4.551c1.435-1.214,2.537-1.852,3.304-1.915c1.238-0.064,1.933,0.247,2.085,0.934
			c0.149,0.688-0.006,1.677-0.47,2.97c-0.465,1.293-1.162,2.817-2.091,4.571c-0.932,1.755-1.873,3.682-2.827,5.781
			c-0.954,2.101-1.833,4.301-2.635,6.6c-0.804,2.3-1.339,4.627-1.612,6.979c-0.164,1.321-0.139,2.624,0.078,3.912
			c0.215,1.288,0.59,2.446,1.124,3.474s1.211,1.84,2.033,2.436c0.821,0.596,1.814,0.861,2.981,0.796
			c1.4-0.01,2.854-0.534,4.367-1.575c1.511-1.04,3.009-2.366,4.492-3.978c1.482-1.61,2.924-3.394,4.322-5.348
			c0.124-0.173,0.236-0.344,0.358-0.517c-0.214,0.748-0.41,1.472-0.573,2.152c-0.549,2.296-0.645,3.958-0.291,4.988
			c0.53,1.719,1.309,2.893,2.33,3.52c1.023,0.63,2.015,0.927,2.977,0.897c0.963-0.031,1.75-0.289,2.362-0.777
			c0.612-0.486,0.801-0.96,0.567-1.42c-0.233-0.457-0.234-1.231-0.001-2.321c0.231-1.089,0.625-2.422,1.181-4
			c0.555-1.576,1.285-3.354,2.194-5.332c0.907-1.978,1.891-4.084,2.949-6.319c1.116-2.119,2.368-4.34,3.755-6.659
			c1.385-2.319,2.803-4.393,4.253-6.223c1.448-1.83,2.897-3.286,4.349-4.37c1.448-1.082,2.852-1.476,4.207-1.182
			c1.118,0.294,1.881,1.086,2.285,2.379c0.403,1.292,0.557,2.828,0.457,4.604c-0.101,1.777-0.408,3.652-0.918,5.627
			c-0.514,1.975-1.156,3.792-1.928,5.449c-1.247,2.689-2.49,5.091-3.73,7.205c-1.239,2.116-2.432,3.902-3.576,5.36
			c-1.146,1.458-2.23,2.572-3.255,3.344s-1.916,1.128-2.675,1.069c-0.643-0.002-1.137-0.347-1.486-1.035
			c0.992-0.457,1.491-1.229,1.493-2.319c0.001-0.744-0.275-1.347-0.83-1.808c-0.556-0.459-1.183-0.689-1.885-0.69
			c-0.82-0.001-1.491,0.313-2.019,0.944c-0.469,0.459-0.702,1.261-0.703,2.407c0,1.147,0.232,2.106,0.699,2.882
			c0.467,0.773,1.035,1.391,1.707,1.85c0.67,0.461,1.398,0.791,2.186,0.992c0.788,0.203,1.531,0.332,2.23,0.392
			c3.383,0.353,6.387,0.364,9.014,0.033s4.979-0.933,7.057-1.808c2.077-0.873,3.955-1.977,5.632-3.311
			c1.677-1.332,3.253-2.794,4.731-4.385c1.532-1.666,2.973-3.375,4.333-5.122c-0.15,1.276-0.195,2.527-0.106,3.747
			c0.152,2.096,0.731,4.037,1.732,5.825c1.002,1.79,2.663,3.157,4.986,4.104c1.915,0.829,3.674,1.168,5.281,1.019
			c1.605-0.148,3.13-0.641,4.574-1.479c1.443-0.837,2.791-1.976,4.043-3.416c1.251-1.441,2.447-3.04,3.592-4.797
			c-0.346,2.918,0.021,5.333,1.096,7.244c1.074,1.912,2.719,2.833,4.939,2.761c1.399,0.028,2.867-0.458,4.406-1.458
			s3.071-2.285,4.597-3.857c1.526-1.571,3.013-3.314,4.464-5.231c0.913-1.207,1.771-2.406,2.605-3.603
			c-0.163,1.26-0.223,2.497-0.15,3.704c0.125,2.098,0.678,4.047,1.656,5.848c0.979,1.803,2.621,3.192,4.932,4.169
			c2.077,0.915,4.213,1.23,6.41,0.948s4.347-0.979,6.454-2.093c2.106-1.112,4.167-2.568,6.185-4.37
			c1.896-1.693,3.672-3.513,5.35-5.439c-0.42,1.205-0.782,2.339-1.072,3.384c-0.631,2.273-0.786,3.932-0.47,4.975
			c0.47,1.736,1.204,2.938,2.204,3.601c1,0.665,1.98,0.999,2.943,1.003s1.758-0.226,2.389-0.691
			c0.629-0.465,0.834-0.932,0.617-1.398c-0.273-0.525-0.227-1.441,0.141-2.749c0.367-1.306,0.949-2.892,1.748-4.757
			c0.797-1.865,1.779-3.967,2.951-6.305c1.17-2.338,2.449-4.802,3.84-7.39c0.42-0.271,0.945-0.552,1.574-0.844
			c0.629-0.291,1.361-0.623,2.199-0.992c0.984,0.382,1.919,1.724,2.798,4.024c0.88,2.302,1.825,5.106,2.835,8.418
			c1.011,3.311,2.125,6.842,3.346,10.594c1.217,3.751,2.618,7.252,4.199,10.505c1.58,3.252,3.397,5.984,5.451,8.198
			s4.438,3.412,7.162,3.596c1.794,0.14,3.348-0.145,4.66-0.857c1.313-0.712,2.34-1.51,3.08-2.392c0.742-0.883,1.175-1.708,1.3-2.477
			S392.051,84.271,391.528,84.245z"/>
	</g>
</g>
</svg>
